<svg xmlns="http://www.w3.org/2000/svg" xmlns:xlink="http://www.w3.org/1999/xlink" viewBox="0 0 1000 1000"><defs><linearGradient id="a" x1="0%" x2="0%" y1="0%" y2="100%"><stop offset="0%" stop-color="#9E74FF"/><stop offset="50%" stop-color="#5490EC"/><stop offset="75%" stop-color="#5E6CF6"/><stop offset="100%" stop-color="#5EAEFD"/></linearGradient><linearGradient id="c" x1="0%" x2="0%" y1="0%" y2="100%"><stop offset="0%" stop-color="#9E74FF"/><stop offset="50%" stop-color="#5490EC"/><stop offset="75%" stop-color="#5E6CF6"/><stop offset="100%" stop-color="#5EAEFD"/></linearGradient><linearGradient id="e" x1="0%" x2="0%" y1="0%" y2="100%"><stop offset="0%" stop-color="#9E74FF"/><stop offset="50%" stop-color="#5490EC"/><stop offset="75%" stop-color="#5E6CF6"/><stop offset="100%" stop-color="#5EAEFD"/></linearGradient><linearGradient id="f" x1="0%" x2="0%" y1="0%" y2="100%"><stop offset="0%" stop-color="#9E74FF"/><stop offset="50%" stop-color="#5490EC"/><stop offset="75%" stop-color="#5E6CF6"/><stop offset="100%" stop-color="#5EAEFD"/></linearGradient><linearGradient id="g" x1="0%" x2="0%" y1="0%" y2="100%"><stop offset="0%" stop-color="#9E74FF"/><stop offset="50%" stop-color="#5490EC"/><stop offset="75%" stop-color="#5E6CF6"/><stop offset="100%" stop-color="#5EAEFD"/></linearGradient><linearGradient id="h" x1="0%" x2="0%" y1="0%" y2="100%"><stop offset="0%" stop-color="#9E74FF"/><stop offset="50%" stop-color="#5490EC"/><stop offset="75%" stop-color="#5E6CF6"/><stop offset="100%" stop-color="#5EAEFD"/></linearGradient><linearGradient id="i" x1="0%" x2="0%" y1="0%" y2="100%"><stop offset="0%" stop-color="#240C3C"/><stop offset="50%" stop-color="#0D3868"/><stop offset="100%" stop-color="#1F0A33"/></linearGradient><linearGradient id="j" x1="0%" x2="0%" y1="0%" y2="100%"><stop offset="0%" stop-color="#9E74FF"/><stop offset="50%" stop-color="#5490EC"/><stop offset="75%" stop-color="#5E6CF6"/><stop offset="100%" stop-color="#5EAEFD"/></linearGradient><linearGradient id="k" x1="0%" x2="0%" y1="0%" y2="100%"><stop offset="0%" stop-color="#9E74FF"/><stop offset="50%" stop-color="#5490EC"/><stop offset="75%" stop-color="#5E6CF6"/><stop offset="100%" stop-color="#5EAEFD"/></linearGradient><linearGradient id="l" x1="0%" x2="0%" y1="0%" y2="100%"><stop offset="0%" stop-color="#9E74FF"/><stop offset="50%" stop-color="#5490EC"/><stop offset="75%" stop-color="#5E6CF6"/><stop offset="100%" stop-color="#5EAEFD"/></linearGradient><linearGradient id="m" x1="0%" x2="0%" y1="0%" y2="100%"><stop offset="0%" stop-color="#240C3C"/><stop offset="50%" stop-color="#0D3868"/><stop offset="100%" stop-color="#1F0A33"/></linearGradient><linearGradient id="n" x1="0%" x2="0%" y1="0%" y2="100%"><stop offset="0%" stop-color="#9E74FF"/><stop offset="50%" stop-color="#5490EC"/><stop offset="75%" stop-color="#5E6CF6"/><stop offset="100%" stop-color="#5EAEFD"/></linearGradient><linearGradient id="o" x1="0%" x2="0%" y1="0%" y2="100%"><stop offset="0%" stop-color="#9E74FF"/><stop offset="50%" stop-color="#5490EC"/><stop offset="75%" stop-color="#5E6CF6"/><stop offset="100%" stop-color="#5EAEFD"/></linearGradient><linearGradient id="p" x1="0%" x2="0%" y1="0%" y2="100%"><stop offset="0%" stop-color="#9E74FF"/><stop offset="50%" stop-color="#5490EC"/><stop offset="75%" stop-color="#5E6CF6"/><stop offset="100%" stop-color="#5EAEFD"/></linearGradient><linearGradient id="q" x1="0%" x2="0%" y1="0%" y2="100%"><stop offset="0%" stop-color="#9E74FF"/><stop offset="50%" stop-color="#5490EC"/><stop offset="75%" stop-color="#5E6CF6"/><stop offset="100%" stop-color="#5EAEFD"/></linearGradient><linearGradient id="t" x1="0%" x2="0%" y1="0%" y2="100%"><stop offset="0%" stop-color="#9E74FF"/><stop offset="50%" stop-color="#5490EC"/><stop offset="75%" stop-color="#5E6CF6"/><stop offset="100%" stop-color="#5EAEFD"/></linearGradient><linearGradient id="w" x1="0%" x2="0%" y1="0%" y2="100%"><stop offset="0%" stop-color="#9E74FF"/><stop offset="50%" stop-color="#5490EC"/><stop offset="75%" stop-color="#5E6CF6"/><stop offset="100%" stop-color="#5EAEFD"/></linearGradient><linearGradient id="z" x1="0%" x2="0%" y1="0%" y2="100%"><stop offset="0%" stop-color="#9E74FF"/><stop offset="50%" stop-color="#5490EC"/><stop offset="75%" stop-color="#5E6CF6"/><stop offset="100%" stop-color="#5EAEFD"/></linearGradient><linearGradient id="E" x1="0%" x2="0%" y1="0%" y2="100%"><stop offset="0%" stop-color="#9E74FF"/><stop offset="50%" stop-color="#5490EC"/><stop offset="75%" stop-color="#5E6CF6"/><stop offset="100%" stop-color="#5EAEFD"/></linearGradient><linearGradient id="F" x1="0%" x2="0%" y1="0%" y2="100%"><stop offset="0%" stop-color="#9E74FF"/><stop offset="50%" stop-color="#5490EC"/><stop offset="75%" stop-color="#5E6CF6"/><stop offset="100%" stop-color="#5EAEFD"/></linearGradient><filter id="b" width="138%" height="108.9%" x="-19%" y="-4.4%" filterUnits="objectBoundingBox"><feGaussianBlur in="SourceGraphic" stdDeviation="3.83970908 0"/></filter><filter id="d" width="132.4%" height="108.6%" x="-16.2%" y="-4.3%" filterUnits="objectBoundingBox"><feGaussianBlur in="SourceGraphic" stdDeviation="3.83970908 0"/></filter><filter id="r" width="104.3%" height="112%" x="-2.1%" y="-3.8%" filterUnits="objectBoundingBox"><feOffset dy="2" in="SourceAlpha" result="shadowOffsetOuter1"/><feGaussianBlur in="shadowOffsetOuter1" result="shadowBlurOuter1" stdDeviation="1.5"/><feColorMatrix in="shadowBlurOuter1" values="0 0 0 0 0 0 0 0 0 0 0 0 0 0 0 0 0 0 0.5 0"/></filter><filter id="u" width="103.1%" height="119%" x="-1.6%" y="-6%" filterUnits="objectBoundingBox"><feOffset dy="2" in="SourceAlpha" result="shadowOffsetOuter1"/><feGaussianBlur in="shadowOffsetOuter1" result="shadowBlurOuter1" stdDeviation="1.5"/><feColorMatrix in="shadowBlurOuter1" values="0 0 0 0 0 0 0 0 0 0 0 0 0 0 0 0 0 0 0.5 0"/></filter><filter id="x" width="103%" height="117.1%" x="-1.5%" y="-5.4%" filterUnits="objectBoundingBox"><feOffset dy="2" in="SourceAlpha" result="shadowOffsetOuter1"/><feGaussianBlur in="shadowOffsetOuter1" result="shadowBlurOuter1" stdDeviation="1.5"/><feColorMatrix in="shadowBlurOuter1" values="0 0 0 0 0 0 0 0 0 0 0 0 0 0 0 0 0 0 0.5 0"/></filter><filter id="A" width="104.3%" height="112%" x="-2.1%" y="-3.8%" filterUnits="objectBoundingBox"><feOffset dy="2" in="SourceAlpha" result="shadowOffsetOuter1"/><feGaussianBlur in="shadowOffsetOuter1" result="shadowBlurOuter1" stdDeviation="1.5"/><feColorMatrix in="shadowBlurOuter1" values="0 0 0 0 0 0 0 0 0 0 0 0 0 0 0 0 0 0 0.5 0"/></filter><filter id="C" width="103.1%" height="119%" x="-1.6%" y="-6%" filterUnits="objectBoundingBox"><feOffset dy="2" in="SourceAlpha" result="shadowOffsetOuter1"/><feGaussianBlur in="shadowOffsetOuter1" result="shadowBlurOuter1" stdDeviation="1.5"/><feColorMatrix in="shadowBlurOuter1" values="0 0 0 0 0 0 0 0 0 0 0 0 0 0 0 0 0 0 0.5 0"/></filter><path id="s" d="M338.73 492.67a252.87 252.87 0 0 0-92.07-54.55l-8.62-2.75a70.31 70.31 0 0 0-8.62-2.24l-8.97-2.06-8.8-1.72c-1.54 0-2.92-.35-4.47-.52l-4.66-.51-4.48-.52-4.48-.34-8.97-.52h-8.97l-9.13.34-4.49.35-4.48.51-8.8 1.2-2.23.18-2.25.52-4.3.86a219.93 219.93 0 0 0-34.5 10.15 306.08 306.08 0 0 1 35.01-6.71 227.86 227.86 0 0 1 103.8 10.32 310.5 310.5 0 0 1 105.69 61.95 72.97 72.97 0 0 1 6.9 5.85l6.37 6.02a176.52 176.52 0 0 0-24.48-25.81Z"/><path id="v" d="M278.67 480.75a441.59 441.59 0 0 0-90.75-18.6c-7.6-.7-15.53-1.04-23.12-1.38-7.76-.35-15.53 0-23.3.34l-22.94 1.9a168.5 168.5 0 0 0-22.95 3.79l-22.6 5.34-11.04 3.44-5.52 1.9-5.35 2.07-10.87 4.3-10.35 4.83-5.18 2.58-5.17 2.76-10.01 5.68 10.35-4.65 5.35-2.41 5.35-2.07 10.7-4.13 10.87-3.45 5.52-1.72 5.52-1.72 11.04-2.76 11.21-2.41c3.63-.86 7.42-1.2 11.22-1.9 7.6-1.38 15.18-2.06 22.77-3.1 7.77-.86 15.19-1.2 22.78-1.38h22.77c7.42.35 15.19.7 22.6 1.55a404.32 404.32 0 0 1 45.38 6.2 533.19 533.19 0 0 1 130.26 42.73 389.02 389.02 0 0 0-84.36-37.73h-.18Z"/><path id="y" d="M362.48 518.5a811.39 811.39 0 0 0-92.73-14.11 585.57 585.57 0 0 0-93.6-.86 416.99 416.99 0 0 0-91.7 16.53l-11.02 3.44-10.86 3.96-10.86 4.48c-3.62 1.55-7.24 2.92-10.69 4.65A341.38 341.38 0 0 0 0 559.49c6.38-4.65 12.41-9.64 19.13-13.78l10.17-6.37 10.34-5.68a295.83 295.83 0 0 1 43.44-18.94c3.62-1.38 7.41-2.24 11.2-3.45l11.55-3.44 11.38-2.75 11.72-2.41a430.47 430.47 0 0 1 94.28-7.4 506.52 506.52 0 0 1 139.27 23.24Z"/><path id="B" d="M466.07 492.67a253.08 253.08 0 0 1 92.13-54.55l8.63-2.75a70.4 70.4 0 0 1 8.63-2.24l8.8-2.06 8.97-1.72 4.48-.52 4.49-.51 4.48-.52 4.66-.34 8.97-.52h8.98l8.97.34 4.48.35c1.56 0 3.11.17 4.49.51l8.97 1.2 2.24.18 2.25.52 4.31.86a207.46 207.46 0 0 1 34.34 10.15 303.58 303.58 0 0 0-34.86-6.71 227.81 227.81 0 0 0-104.03 10.32 310.75 310.75 0 0 0-105.77 61.95 102.05 102.05 0 0 0-6.73 5.85l-6.38 6.02a175.7 175.7 0 0 1 24.5-25.81Z"/><path id="D" d="M525.34 481.54a440.04 440.04 0 0 1 90.53-18.66c7.76-.69 15.52-1.03 23.28-1.38 7.77-.34 15.53 0 23.29.35l23.1 1.9c7.6.69 15.35 2.07 22.94 3.8l22.42 5.35 11.2 3.46 5.53 1.9 5.34 2.07 10.7 4.32 10.51 4.84 5.18 2.6 5.17 2.76 10 5.7-10.52-4.66-5.17-2.42-5.35-2.08-10.86-4.14-10.87-3.46-5.34-1.73-5.52-1.73-11.04-2.76-11.2-2.42c-3.63-.86-7.42-1.2-11.39-1.9-7.41-1.55-15-2.07-22.76-3.11-7.59-.86-15-1.2-22.6-1.38h-22.76c-7.58.34-15.17.69-22.76 1.55a399.91 399.91 0 0 0-45.18 6.22 531.63 531.63 0 0 0-130.37 42.68 344.65 344.65 0 0 1 41.04-21.08 388.06 388.06 0 0 1 43.46-16.59Z"/></defs><g fill="none" fill-rule="evenodd"><path fill="url(#a)" fill-opacity=".2" fill-rule="nonzero" d="M199.39 115.02c-2.43-75.54-36.21-98.88-37.46-100.75 4.46 10.45 5.25 21.99 5.25 21.99C156.66 13.8 141.54.78 140.6 0c.6.86 7.76 10.53 16.79 30.57 9.45 20.97 13.66 48.81 13.66 48.81-9-19.18-22.75-24.33-23.6-24.56.76.78 12.85 14.11 19.66 30.56 7 17 10.04 51.08 10.04 51.08-14.25-32.05-35.07-45.62-36.34-46.4 9.97 8.19 21.73 27.68 31.91 49.52 10.18 21.9 12.49 55.52 12.49 55.52-12.16-32.9-31.34-40-32.52-40.32 26.4 27.14 32.64 65.74 32.64 65.74-5.28-9.9-15.94-19.34-16.6-19.96.69 1.16 28.26 50.09 30.66 58.9 2.42 9.12 2.42-68.91 0-144.44Z" filter="url(#b)" transform="translate(97.37 15.16)"/><path fill="url(#c)" fill-opacity=".2" fill-rule="nonzero" d="M609.91 255.7s7.24-38.66 38.47-71.04c-1.4.47-24.1 8.84-38.47 48.1 0 0 2.73-40.1 14.77-66.24 12.05-26.05 25.96-49.3 37.75-59.07-1.54 1.02-26.13 17.12-42.98 55.35 0 0 3.58-40.75 11.86-60.93 8.04-19.63 22.38-35.54 23.27-36.47-1 .37-17.28 6.42-27.93 29.3 0 0 5.02-33.2 16.2-58.23C653.56 12.56 662 .93 662.73 0c-1.11.93-19 16.47-31.51 43.26 0 0 .93-13.68 6.24-26.24-1.51 2.24-55.18 47.66-44.35 120.2 10.28 68.93 1.21 128.22 4.08 125.87.04-.04-.2 6 1.52 5.04 5.05-2.78 15.86-21.23 11.21-12.43Z" filter="url(#d)" transform="translate(97.37 15.16)"/><path fill="url(#e)" fill-rule="nonzero" d="M467.87 255.2c-2.77 11.42-10.39 22.84-14.72 33.9a188.77 188.77 0 0 0-13.5 74.56l-.87 31.14c-3.11 2.42-6.75-2.42-7.61-6.4l-8.14-35.46a99.8 99.8 0 0 1-14.89 21.97 112.88 112.88 0 0 1-5.02-28.2 111.06 111.06 0 0 1-5.19 28.2 100.67 100.67 0 0 1-14.71-21.97l-8.14 35.46c-.86 3.98-4.5 8.82-7.62 6.4l-.86-31.14c.59-25.5-4-50.87-13.5-74.55-4.33-11.07-11.95-22.49-14.72-33.9-5.88-24.22 1.04-57.6 5.72-81.65 6.92 3.46 9.86 12.1 11.77 19.55a339.97 339.97 0 0 1 6.92 32l19.04-49.82a89.37 89.37 0 0 1 4.16 42.38A250.12 250.12 0 0 1 399.14 181a34.58 34.58 0 0 1 3.98 12.45c.52-4.32 1.9-8.65 3.99-12.45a237.88 237.88 0 0 1 13.15 36.67 89.54 89.54 0 0 1 4.16-42.38l19.04 49.82a339.97 339.97 0 0 1 6.92-32c1.9-7.62 4.68-16.1 11.77-19.55 4.68 24.04 11.6 57.43 5.72 81.65Z" transform="translate(97.37 15.16)"/><path fill="url(#f)" fill-rule="nonzero" d="M257.77 325.15a50.06 50.06 0 0 0-23.12 18 46.9 46.9 0 0 0-6.73 26.85 93.38 93.38 0 0 0 18.29 51.95l8.62 7.45-10.52 2.6c-8.11 2.07-16.05 3.46-23.64 5.19a129.04 129.04 0 0 0-22.26 6.58 85.45 85.45 0 0 0-36.57 28.57 76.6 76.6 0 0 1 33.12-36.19 107.35 107.35 0 0 1 23.12-9.18c7.94-2.25 15.88-3.98 23.3-6.06l-2.08 10.04a31.48 31.48 0 0 1-6.2-6.92l-4.32-7.28a100.75 100.75 0 0 1-10.53-47.1 56.68 56.68 0 0 1 3.11-16.1 42.64 42.64 0 0 1 36.23-28.23l.18-.17Z" transform="translate(97.37 15.16)"/><path fill="url(#g)" fill-rule="nonzero" d="M221.7 270.22a208.68 208.68 0 0 0-54.66 54.85 188.9 188.9 0 0 0-27.76 70.72l-8.1-5.17 15.17-10.87 15.34-10.7 30.52-21.2 46.04-32.26-38.62 40.88a169.2 169.2 0 0 0-16.38 20 266.16 266.16 0 0 0-37.25 69 216.88 216.88 0 0 0-11.55 51.05 180.89 180.89 0 0 0 2.76 52.78 154.94 154.94 0 0 1-8.28-53.12 193.65 193.65 0 0 1 8.62-53.47 246.15 246.15 0 0 1 44.83-83.49c2.76-3.62 5.7-6.9 8.97-10.69l7.42 8.8-30.7 20.87-15.52 10.52-15.52 10.35-10.52 7.07 2.6-12.07a195.8 195.8 0 0 1 12.06-38.64 192.5 192.5 0 0 1 20.35-34.5 191.43 191.43 0 0 1 27.24-28.97 159 159 0 0 1 32.77-21.74h.17ZM112.03 691.08a162.7 162.7 0 0 1-6.9-59.85 129.38 129.38 0 0 1 19.32-57.95 149.35 149.35 0 0 1 42.24-44.5 241.4 241.4 0 0 1 53.8-28.98l16.9-6.9-10.17 15.52-1.73 2.93-1.72 3.45a228.57 228.57 0 0 0-10.35 21.74 427.48 427.48 0 0 0-21.72 60.88 531.02 531.02 0 0 0-13.45 63.13c-4.42 32.25-5 64.9-1.73 97.28a295.31 295.31 0 0 1-7.41-65.2 363 363 0 0 1 5.51-65.54 431.8 431.8 0 0 1 38.98-117.63l2.06-3.8 2.42-3.97 6.72 8.63a242.32 242.32 0 0 0-51.73 27.08 175.22 175.22 0 0 0-41.38 40.53 129.2 129.2 0 0 0-21.04 53.99c-3.28 19.49-2.07 39.67 1.38 59.16ZM233.6 562.24a141.68 141.68 0 0 0-8.62 19.66 246.18 246.18 0 0 0-11.21 41.4 331.25 331.25 0 0 0-4.83 63.64v5.18l.34 5.34.87 10.7 1.03 10.52 1.38 10.52-10.86-1.2a212.68 212.68 0 0 1 13.27-29.33 340.31 340.31 0 0 1 35.7-52.6c6.9-8.11 13.62-16.05 21.04-23.98l18.96-19.67-8.96 25.88a206.85 206.85 0 0 0-9.31 37.25 226 226 0 0 0-3.8 38.81c-.34 12.94.86 25.87 3.45 38.64a129.9 129.9 0 0 0 14.66 36.22 101.77 101.77 0 0 1-19.31-35.02 153.03 153.03 0 0 1-7.07-39.67 231.26 231.26 0 0 1 10.34-80.37l9.83 6.03a408.42 408.42 0 0 0-38.45 48.3 300.49 300.49 0 0 0-29.66 53.3l-8.62 21.56-2.25-22.6-1.2-11.04c-.33-3.61-.56-7.24-.7-10.86l-.34-11.04v-10.87a299.8 299.8 0 0 1 4.14-43.64 255.67 255.67 0 0 1 19.31-62.1 141.27 141.27 0 0 1 10.87-18.96Zm165.36 85.03a410.26 410.26 0 0 0-11.38 77.62 452.88 452.88 0 0 0 10.7 128.84l4.48 18.46-14.66-12.25-12.76-11.04-6.03-5.7-6.21-5.85a348.58 348.58 0 0 1-22.94-25.01 220.79 220.79 0 0 1-34.48-58.65 184.77 184.77 0 0 1-11.9-66.75 322.1 322.1 0 0 1 7.24-66.75 434.77 434.77 0 0 0-.69 66.4A218.41 218.41 0 0 0 315 749.9a196.8 196.8 0 0 0 34.49 54.68 316.64 316.64 0 0 0 28.28 29.33l6.03 5.69 12.42 10.86-10 6.21a362.48 362.48 0 0 1-8.97-106.07 374.55 374.55 0 0 1 13.28-78.31c2.24-8.62 5.17-16.9 8.44-25.18v.17Z" transform="translate(97.37 15.16)"/><path stroke="url(#h)" stroke-width="5.09" d="M347.1 574.87c4.74 26.69 27.88 44.67 54.93 44.67 27.04 0 50.19-17.98 54.92-44.67" transform="translate(97.37 15.16)"/><path fill="url(#i)" fill-rule="nonzero" d="m295.57 391.44-6.53-3.1c-2.75-1.38-5.68-3.27-5.85-6.2 0-1.71.69-3.43 1.72-4.81.34-.69.52-1.38.34-2.06a3.44 3.44 0 0 0-1.37-1.72 39.74 39.74 0 0 1-14.1-35.44c3.44-.86 6.88-1.2 10.32-1.72a113.48 113.48 0 0 1 15.3-2.41 45.96 45.96 0 0 1 32.5 11.35 55.05 55.05 0 0 1 17.38 30.1 33.56 33.56 0 0 1 .86 12.4c-.52 2.4-1.04 4.81-1.9 6.87-.68 1.73-1.72 3.96-3.44 4.48-1.2 0-2.4 0-3.44-.69a96.29 96.29 0 0 0-25.28-6.54c6.02 3.44 29.24 23.57 24.08 20.82a820.26 820.26 0 0 0-40.59-21.33Z" transform="translate(97.37 15.16)"/><path fill="#FCB31C" fill-rule="nonzero" d="M392.4 387.73c7.09 7.77 19.02 11.22 28.7 7.42a8.65 8.65 0 0 0 3.28-2.07c1.73-1.72 1.9-4.31 2.42-6.55.7-2.42 1.21-4.83 1.56-7.42a14.13 14.13 0 0 0-4.84-9.83 39.07 39.07 0 0 0-9.34-6.38 99.03 99.03 0 0 1-3.45 17.59 7.7 7.7 0 0 1-2.08 4.48c-2.76 2.42-7.26.7-9.16-2.41-1.9-3.1-1.73-6.9-1.73-10.35l.17-6.9a7.5 7.5 0 0 0-.52-3.8 6.23 6.23 0 0 0-4.84-2.58c-2.24-.35-6.57-.86-8.12 1.38-1.38 2.24-.52 6.9-.17 9.31a32.74 32.74 0 0 0 8.12 18.11Z"/><path fill="#FFF" fill-rule="nonzero" d="M406.03 373.27a3.3 3.3 0 1 0 0-6.6 3.3 3.3 0 0 0 0 6.6Z"/><path fill="url(#j)" fill-rule="nonzero" d="m255.57 328.08 15.58 25.63 3.46-11.13z" transform="translate(97.37 15.16)"/><path fill="url(#j)" fill-rule="nonzero" d="m262.16 328.08 15.58 25.63 3.46-11.13z" transform="translate(97.37 15.16)"/><path fill="url(#f)" fill-rule="nonzero" d="M549.22 325.15c5.14.7 10.15 2.16 14.86 4.32a42.71 42.71 0 0 1 21.43 24.22 61.86 61.86 0 0 1 3.29 16.08 89.46 89.46 0 0 1-21.26 61.06l-2.08-10.03c7.44 2.07 15.56 3.8 23.34 6.05 8.12 2.25 15.9 5.2 23.33 9.17a74.36 74.36 0 0 1 33.02 36.32 142 142 0 0 0-16.77-17.12 87.89 87.89 0 0 0-19.88-11.59 129.57 129.57 0 0 0-22.3-6.75c-7.6-1.73-15.55-2.94-23.67-5.01l-10.55-2.6 8.64-7.26a65.73 65.73 0 0 0 7.26-10.55 97.78 97.78 0 0 0 11.07-41.51c.49-9.5-1.92-18.9-6.92-26.99-5.01-7.95-13.48-13.83-22.81-17.81Z" transform="translate(97.37 15.16)"/><path fill="url(#k)" fill-rule="nonzero" d="M585.6 270.22c18 8.72 34.16 20.78 47.6 35.54a191.11 191.11 0 0 1 33.25 49.69 178.3 178.3 0 0 1 12.11 38.47l2.6 12.25-10.56-6.9-15.58-10.35-15.58-10.7-30.81-21.04 7.44-8.63a167.45 167.45 0 0 1 17.31 21.4 262.93 262.93 0 0 1 36.7 72.62 193.05 193.05 0 0 1 8.66 53.49 158.4 158.4 0 0 1-8.31 53.13 186.08 186.08 0 0 0-9-103.86 265.74 265.74 0 0 0-53.67-88.84L569 315.59l46.22 32.1 30.64 21.39a336.98 336.98 0 0 1 15.23 10.7l15.23 10.86-7.96 5.18a185 185 0 0 0-67-114.04 152.3 152.3 0 0 0-15.57-11.56h-.17Zm110.1 420.96c3.46-19.67 4.67-39.68 1.56-59.18a129.08 129.08 0 0 0-40.16-75.9 155.33 155.33 0 0 0-22.5-18.64 256.15 256.15 0 0 0-51.94-27.08l6.58-8.63 2.6 3.97 2.07 3.8c3.93 7.3 7.51 14.78 10.74 22.42A437.8 437.8 0 0 1 633.04 627a363.7 363.7 0 0 1 5.54 65.73c0 21.91-2.6 43.82-7.62 65.22a380.9 380.9 0 0 0-1.73-97.3 411.82 411.82 0 0 0-13.5-63.32 797 797 0 0 0-9.87-30.71 404.4 404.4 0 0 0-25.97-58.31l-10.38-15.36 17.13 6.9a242.6 242.6 0 0 1 54.01 28.99 149.45 149.45 0 0 1 42.59 44.5 129.1 129.1 0 0 1 19.21 57.97c1.73 20.19-.7 40.55-6.75 59.87Z" transform="translate(97.37 15.16)"/><path fill="url(#l)" fill-rule="nonzero" d="M573.61 563.15a105.1 105.1 0 0 1 10.7 18.96 254.77 254.77 0 0 1 23.49 105.84v10.7l-.35 11.02-.86 10.86c-.17 3.8-.69 7.42-1.04 11.04l-2.24 22.58-8.63-21.38a176.22 176.22 0 0 0-13.13-27.4 514.44 514.44 0 0 0-54.9-74.13l9.84-6.03a222.57 222.57 0 0 1 8.63 39.64 230.61 230.61 0 0 1 1.73 40.51 152.67 152.67 0 0 1-7.25 39.82 101.66 101.66 0 0 1-19.34 35 101.99 101.99 0 0 0 8.97-17.59 166.1 166.1 0 0 0 5.7-18.61 166.08 166.08 0 0 0 3.46-38.62 236.3 236.3 0 0 0-7.6-57.74 287.5 287.5 0 0 0-5.35-18.45l-8.98-25.68 19 19.65a395.49 395.49 0 0 1 56.8 76.54 195.2 195.2 0 0 1 13.3 29.3l-10.88 1.2 1.38-10.5c.34-3.46.86-7.08 1.03-10.7.18-3.44.7-6.9.7-10.51l.34-5.17.17-5.52c.25-14.16-.32-28.31-1.72-42.4a290.05 290.05 0 0 0-14.34-62.4 163.62 163.62 0 0 0-8.63-19.83Zm-165.76 84.98c3.45 8.1 6.22 16.38 8.63 24.83a346.48 346.48 0 0 1 13.13 78.43c1.03 17.75.86 35.54-.52 53.27a361.44 361.44 0 0 1-8.3 52.57l-10-6.03 12.25-10.86a250.2 250.2 0 0 0 12.1-11.2 290.9 290.9 0 0 0 22.44-23.8 196.35 196.35 0 0 0 49.2-117.9c1.73-21.9.87-44.13-.68-66.37a323.56 323.56 0 0 1 7.08 66.54c.41 34.36-8.8 68.15-26.6 97.57a220.65 220.65 0 0 1-19.68 27.92 325.35 325.35 0 0 1-29.35 30.69l-6.05 5.86-12.77 11.03-14.5 12.24 4.48-18.45a426.67 426.67 0 0 0 10.88-76.88c.35-8.62.7-17.24.7-25.86a619.2 619.2 0 0 0-3.29-52.05 405.35 405.35 0 0 0-9.15-51.72v.17Z" transform="translate(97.37 15.16)"/><path fill="url(#i)" fill-rule="nonzero" d="m513.54 391.44 6.71-3.1c2.59-1.37 5.52-3.27 5.69-6.19 0-1.72-.69-3.44-1.72-4.82l-.35-2.06c.35-.69.86-1.2 1.55-1.72a39.53 39.53 0 0 0 13.95-35.43c-3.44-.86-6.89-1.2-10.33-1.72-5-1.2-10-1.9-15.16-2.41a46.55 46.55 0 0 0-32.73 11.35 55.1 55.1 0 0 0-17.4 30.1 33.5 33.5 0 0 0 1.04 19.27c.69 1.72 1.72 3.95 3.44 4.47 1.2 0 2.41 0 3.45-.69a96.57 96.57 0 0 1 25.5-6.54c-6.2 3.44-29.46 23.57-24.3 20.82a822.07 822.07 0 0 1 40.66-21.33Z" transform="translate(97.37 15.16)"/><path fill="#73D0F5" fill-rule="nonzero" d="M611.42 387.73c-6.94 7.77-19.06 11.22-28.77 7.42a8.67 8.67 0 0 1-3.11-2.07c-1.74-1.72-2.08-4.31-2.6-6.55a35.07 35.07 0 0 1-1.39-7.42 14.3 14.3 0 0 1 4.68-9.83 39.86 39.86 0 0 1 9.53-6.38 98.6 98.6 0 0 0 3.29 17.59c.17 1.72 1.04 3.1 2.25 4.48 2.6 2.42 7.28.7 9.18-2.41 1.74-3.1 1.74-6.9 1.74-10.35l-.35-6.9c0-1.2 0-2.59.7-3.8a6.24 6.24 0 0 1 4.67-2.58c2.25-.35 6.59-.86 8.15 1.38 1.55 2.24.51 6.9.17 9.31a30.7 30.7 0 0 1-8.14 18.11Z"/><path fill="#FFF" fill-rule="nonzero" d="M597.88 373.27a3.3 3.3 0 1 0 0-6.6 3.3 3.3 0 0 0 0 6.6Z"/><path fill="url(#m)" fill-rule="nonzero" d="m553.61 328.08-15.58 25.63-3.46-11.13z" transform="translate(97.37 15.16)"/><path fill="url(#j)" fill-rule="nonzero" d="m546.29 328.08-15.58 25.63-3.46-11.13z" transform="translate(97.37 15.16)"/><path stroke="url(#n)" stroke-width="5.82" d="M536.68 508.23a66.83 66.83 0 0 1-32.55 60.76 67.5 67.5 0 0 1-69.19 0 66.83 66.83 0 0 1-32.55-60.76 66.83 66.83 0 0 1-32.55 60.76 67.5 67.5 0 0 1-69.19 0 66.83 66.83 0 0 1-32.55-60.76" transform="translate(97.37 15.16)"/><path fill="url(#o)" fill-rule="nonzero" d="M595.83 568.13v-.44h-.22v.44z" transform="translate(97.37 15.16)"/><path fill="url(#p)" fill-rule="nonzero" d="m145 7.32.07.03.12.04c2 .67 15.96 5.54 25.8 13.69 0 0-.78-4.38-5.13-8.34 1.15.67 19.3 11.52 34.3 34.5 59.05 68.73 156.63 189.66 159.24 208.8 2.93 20.04-31.55 21.42-55.86 18.14-24.3-3.46-52.06-10.54-52.06-10.54l31.37-1.2-19.82-7.43 32.75 2.42-15.51-7.95 32.67 1.04h.03-.03c-2.3-.1-51.17-2.37-88.7-35.74 27.58 12.43 64.3 22.45 64.3 22.45l-.04-.02c-1.3-.5-34.06-13.26-49.26-29.17a617.5 617.5 0 0 0 19.7 8.23l1.32.53 1.96.78 1.3.53c12.62 5.03 24.5 9.62 24.5 9.62s-6.98-4.32-13.88-9.58l-.63-.49-.64-.5-.63-.49a68.96 68.96 0 0 1-7.83-7.07l3.03.73 1 .26c15.4 3.9 29.41 9.02 29.41 9.02s-10.4-5.37-20.79-10.79l-1.2-.62c-9.17-4.8-18.04-9.47-19.38-10.34 22.58-4.84 24.3-24.52 24.3-24.52l-32.92-3.8 18.44-10.36s-19.82-22.45-32.06-20.72c-12.07 1.72-29.66 8.29-29.66 43.86 0 35.4 3.8 96.7 3.8 96.7-9.83-12.1-21.9-67.87-21.9-110.17 0-22.63-2.86-54.8-5.52-79.83l-.4-.27-.63-.45c-3.59-2.5-7.08-4.67-7.44-4.9.39.13 4.14 1.42 8.21 3.23l-.73-6.69c-4.9-4.46-12.28-9.57-23.15-13.9.88.08 11.98 1.67 22.47 7.94-.54-4.76-1.05-8.98-1.47-12.46-.46-.43-.93-.85-1.41-1.25-9.96-8.29-21.46-15.68-31.21-18.79l.16.04.17.05c2.68.68 18.78 5.09 31.63 14.64l-.68-5.3 3.33 4.9c-1.35-4.27-4.21-11.7-8.89-16.1-6.66-6.24-18.49-11.3-19.23-11.6.83.1 14.28 2.05 23.09 9.32 0 0-4.12-10.56-13.37-18.51-8.83-7.6-15.82-11.27-16.42-11.6ZM443.01 252.6c-2.76 20.03 31.54 21.59 55.85 18.13 24.48-3.45 52.07-10.36 52.07-10.36l-31.2-1.38 19.82-7.42-32.76 2.41 15.35-7.94-32.59 1.04s50.17-1.38 88.62-35.75c-27.59 12.6-64.14 22.45-64.14 22.45s33.62-12.78 49.14-29.18c-13.45 6.04-48.79 19.68-48.79 19.68s16.2-10.01 23.62-18.13c-16.9 3.98-33.45 10.02-33.45 10.02s38.62-19.86 41.38-21.76a28.81 28.81 0 0 1-24.14-24.34l32.76-3.98-18.28-10.36s19.83-22.44 31.9-20.72c12.07 1.73 29.65 8.46 29.65 43.86s-3.8 96.7-3.8 96.7c9.84-12.09 21.9-67.69 21.9-110.17 0-42.3 10.18-117.93 10.18-117.93l-13.45 19.51-1.04-34.02C554.4 98.91 445.95 232.4 443.02 252.6Zm165.16-141.05c2.75-3.99 17.27-12.98 18.08-13.5-.78.27-13.2 4.54-19.35 9.02 0 0 7.27-17.46 38.03-29.73-1.38.18-23.73 3.35-37.9 18.23 0 0 2.7-15.2 14.56-25.1 11.86-9.88 25.56-18.7 37.18-22.4-1.52.39-25.74 6.49-42.34 20.98 0 0 3.53-15.45 11.69-23.1 7.9-7.44 22.03-13.47 22.91-13.82-.98.14-17.01 2.43-27.5 11.1 0 0 4.94-12.58 15.96-22.07 10.52-9.07 18.85-13.47 19.56-13.83-1.1.36-18.71 6.25-31.04 16.4 0 0 .92-5.18 6.15-9.94-1.49.84-25.36 15.16-43.68 45.56-18.9 31.43 14.86 56.33 17.69 52.2Z" transform="translate(97.37 15.16)"/><path fill="url(#q)" fill-rule="nonzero" d="M683.05 714.74a388.14 388.14 0 0 1-25.38 80.59c-2.59 6.38-5.87 12.77-8.98 18.98l-4.83 9.5-2.6 4.65-2.75 4.66a352.03 352.03 0 0 1-23.49 35.38l-6.9 9.32 1.72-11.74 1.73-12.08 1.38-12.08.87-12.08.34-12.25c0-12.13-.92-24.25-2.76-36.24-.71-3.9-1.63-7.76-2.76-11.56l7.6.34a1187.75 1187.75 0 0 1-56.99 111.31 224.34 224.34 0 0 1-24.51 34.52L520.06 932l5.53-21.23a313.93 313.93 0 0 0 8.28-43.66c.7-7.25.87-14.5.52-21.74a55.64 55.64 0 0 0-4.66-19.85l10.7-.52a156.66 156.66 0 0 1-10.53 23.13 269.04 269.04 0 0 1-44.03 61.43 274.7 274.7 0 0 1-80.8 59.37l-2.76 1.38-2.6-1.38a272.73 272.73 0 0 1-130.7-132.2c-1.72-3.79-3.45-7.59-5-11.9l10.87.69a55.89 55.89 0 0 0-4.66 19.85c-.34 7.24-.17 14.5.52 21.57a316.27 316.27 0 0 0 8.29 43.83l5.35 21.23-14.5-16.23a229.52 229.52 0 0 1-24.7-34.51c-7.42-11.9-14.15-24.16-20.71-36.24a1290.2 1290.2 0 0 1-36.26-74.9l7.6-.51a100.73 100.73 0 0 0-4.32 23.47 228.54 228.54 0 0 0 0 48.83l1.55 12.08 1.73 12.08 1.72 11.74-6.9-9.32a324.42 324.42 0 0 1-23.48-35.55l-2.77-4.49-2.41-4.66-5.18-9.32c-2.94-6.55-6.05-12.77-8.8-19.32a394 394 0 0 1-25.39-80.42 397.64 397.64 0 0 0 28.32 79.2c2.93 6.4 6.38 12.6 9.67 18.82l5.17 9.15 2.6 4.48 2.76 4.49a368.79 368.79 0 0 0 24.17 34.17l-5.18 2.24-2.24-12.25-1.73-12.43-1.21-12.42c-.17-4.14-.52-8.28-.52-12.6a240.1 240.1 0 0 1 3.11-43.83c.35-2.25.86-4.14 1.55-6.56l2.94-10.18 4.66 9.84a1565.94 1565.94 0 0 0 37.3 73.68 793.43 793.43 0 0 0 20.89 35.38 241.6 241.6 0 0 0 23.82 32.79l-9.15 4.83a290.96 290.96 0 0 1-8.97-45.21 141.44 141.44 0 0 1-.87-23.65 68.47 68.47 0 0 1 5.53-24.16l5.87-12.77 5.18 13.3a146.3 146.3 0 0 0 10.01 21.56 276.67 276.67 0 0 0 78.39 90.6 269.67 269.67 0 0 0 41.44 24.5h-5.35a259.98 259.98 0 0 0 107.4-94.56 289.7 289.7 0 0 0 22.44-42.28l5.18-13.12 5.7 12.6a64.91 64.91 0 0 1 5.52 24.16c.43 7.89.2 15.8-.7 23.64a293.24 293.24 0 0 1-8.97 45.4l-9.15-5.19a232.98 232.98 0 0 0 23.83-32.61 1164.65 1164.65 0 0 0 58.01-109.24l4.66-9.5 2.94 10.02 1.55 6.56 1.04 6.2a172.83 172.83 0 0 1 2.07 37.63 233.2 233.2 0 0 1-1.73 25.02l-1.72 12.43-2.25 12.25-5.18-2.24a393.5 393.5 0 0 0 24.17-34.17l2.77-4.49 2.59-4.49 5.18-9.14c3.28-6.22 6.73-12.43 9.5-18.81a397.47 397.47 0 0 0 28.65-79.04h-.17Z" transform="translate(97.37 15.16)"/><g fill-rule="nonzero" transform="translate(97.37 15.16)"><use fill="#000" filter="url(#r)" xlink:href="#s"/><use fill="url(#t)" xlink:href="#s"/></g><g fill-rule="nonzero" transform="translate(97.37 15.16)"><use fill="#000" filter="url(#u)" xlink:href="#v"/><use fill="url(#w)" xlink:href="#v"/></g><g fill-rule="nonzero" transform="translate(97.37 15.16)"><use fill="#000" filter="url(#x)" xlink:href="#y"/><use fill="url(#z)" xlink:href="#y"/></g><g fill-rule="nonzero" transform="translate(97.37 15.16)"><use fill="#000" filter="url(#A)" xlink:href="#B"/><use fill="url(#t)" xlink:href="#B"/></g><g fill-rule="nonzero" transform="translate(97.37 15.16)"><use fill="#000" filter="url(#C)" xlink:href="#D"/><use fill="url(#w)" xlink:href="#D"/></g><path fill="url(#E)" fill-rule="nonzero" d="M443.03 518.95a586.5 586.5 0 0 1 92.56-14.48 563.84 563.84 0 0 1 93.43-1.2 426.12 426.12 0 0 1 91.87 16.2l11.03 3.44 11.03 3.97 10.86 4.48c3.44 1.37 7.24 2.75 10.68 4.65 14.2 6.6 27.91 14.2 41.03 22.75-6.38-4.66-12.59-9.65-19.3-13.79-3.46-2.07-6.56-4.3-10-6.2l-10.35-5.86a285.99 285.99 0 0 0-54.8-22.06l-11.56-3.45-11.55-2.75-11.54-2.42a430.49 430.49 0 0 0-94.29-6.89 506.5 506.5 0 0 0-139.1 23.6Z" transform="translate(97.37 15.16)"/><path fill="url(#F)" fill-rule="nonzero" d="M435.47 482.85c-12.1 0-16.4 7.78-18.3 20.74-1.9 12.97-.7 19.36-14.86 20.75-14.16-1.39-12.95-7.78-14.85-20.75-1.73-12.96-6.21-20.74-18.3-20.74s-24.18-2.6-20.72-18.33c3.45-15.9 27.97-10.89 37.12-3.45 9.15 7.26 16.75 3.45 16.75 3.45s7.6 3.8 16.75-3.45c9.15-7.26 33.68-12.45 37.3 3.45 3.46 15.56-8.98 18.33-20.9 18.33Z" transform="translate(97.37 15.16)"/></g></svg>
